<svg width="27" height="27" viewBox="0 0 27 27" fill="none" xmlns="http://www.w3.org/2000/svg">
<path d="M13.3294 0.385208L13.5 0.375C13.8572 0.375047 14.202 0.506186 14.4689 0.743543C14.7358 0.9809 14.9063 1.30797 14.9481 1.66271L14.9583 1.83333V12.0417H25.1667C25.5239 12.0417 25.8686 12.1729 26.1355 12.4102C26.4025 12.6476 26.573 12.9746 26.6148 13.3294L26.625 13.5C26.625 13.8572 26.4938 14.202 26.2565 14.4689C26.0191 14.7358 25.692 14.9063 25.3373 14.9481L25.1667 14.9583H14.9583V25.1667C14.9583 25.5239 14.8271 25.8686 14.5898 26.1355C14.3524 26.4025 14.0254 26.573 13.6706 26.6148L13.5 26.625C13.1428 26.625 12.798 26.4938 12.5311 26.2565C12.2642 26.0191 12.0937 25.692 12.0519 25.3373L12.0417 25.1667V14.9583H1.83333C1.47614 14.9583 1.13138 14.8271 0.864458 14.5898C0.597532 14.3524 0.427 14.0254 0.385208 13.6706L0.375 13.5C0.375047 13.1428 0.506186 12.798 0.743543 12.5311C0.9809 12.2642 1.30797 12.0937 1.66271 12.0519L1.83333 12.0417H12.0417V1.83333C12.0417 1.47614 12.1729 1.13138 12.4102 0.864458C12.6476 0.597532 12.9746 0.427 13.3294 0.385208L13.5 0.375L13.3294 0.385208Z" fill="#0E51D2"/>
</svg>
