<svg width="28" height="28" viewBox="0 0 28 28" fill="none" xmlns="http://www.w3.org/2000/svg">
<path d="M4 6.5H24L22.025 24.275C21.9573 24.8867 21.6663 25.452 21.2078 25.8625C20.7493 26.2731 20.1555 26.5 19.54 26.5H8.46C7.84454 26.5 7.2507 26.2731 6.79218 25.8625C6.33367 25.452 6.0427 24.8867 5.975 24.275L4 6.5Z" stroke="#0E51D2" stroke-width="2" stroke-linecap="round" stroke-linejoin="round"/>
<path d="M8.18125 2.93375C8.38344 2.50496 8.70338 2.1425 9.10376 1.88864C9.50413 1.63478 9.96843 1.49999 10.4425 1.5H17.5575C18.0318 1.49976 18.4963 1.63443 18.897 1.8883C19.2976 2.14218 19.6177 2.50477 19.82 2.93375L21.5 6.5H6.5L8.18125 2.93375Z" stroke="#0E51D2" stroke-width="2" stroke-linecap="round" stroke-linejoin="round"/>
<path d="M1.5 6.5H26.5" stroke="#0E51D2" stroke-width="2" stroke-linecap="round" stroke-linejoin="round"/>
<path d="M11.5 12.75V19" stroke="#0E51D2" stroke-width="2" stroke-linecap="round" stroke-linejoin="round"/>
<path d="M16.5 12.75V19" stroke="#0E51D2" stroke-width="2" stroke-linecap="round" stroke-linejoin="round"/>
</svg>
